<?xml version="1.0" encoding="UTF-8" standalone="no"?>
<svg
   xmlns:dc="http://purl.org/dc/elements/1.1/"
   xmlns:cc="http://creativecommons.org/ns#"
   xmlns:rdf="http://www.w3.org/1999/02/22-rdf-syntax-ns#"
   xmlns:svg="http://www.w3.org/2000/svg"
   xmlns="http://www.w3.org/2000/svg"
   xmlns:sodipodi="http://sodipodi.sourceforge.net/DTD/sodipodi-0.dtd"
   xmlns:inkscape="http://www.inkscape.org/namespaces/inkscape"
   height="1024"
   width="1024"
   version="1.1"
   viewBox="0 0 270.93333 270.93334"
   id="svg8"
   sodipodi:docname="ccolor_optimized_ver3.svg"
   inkscape:version="0.92.2 (5c3e80d, 2017-08-06)"
   inkscape:export-filename="C:\Users\Haris6AN\Desktop\Electron App Development\CColor\img\ccolor_1024x1024.png"
   inkscape:export-xdpi="96"
   inkscape:export-ydpi="96">
  <metadata
     id="metadata14">
    <rdf:RDF>
      <cc:Work
         rdf:about="">
        <dc:format>image/svg+xml</dc:format>
        <dc:type
           rdf:resource="http://purl.org/dc/dcmitype/StillImage" />
        <dc:title></dc:title>
      </cc:Work>
    </rdf:RDF>
  </metadata>
  <defs
     id="defs12" />
  <sodipodi:namedview
     pagecolor="#ffffff"
     bordercolor="#666666"
     borderopacity="1"
     objecttolerance="10"
     gridtolerance="10"
     guidetolerance="10"
     inkscape:pageopacity="0"
     inkscape:pageshadow="2"
     inkscape:window-width="640"
     inkscape:window-height="480"
     id="namedview10"
     showgrid="false"
     inkscape:zoom="0.22607422"
     inkscape:cx="213.8019"
     inkscape:cy="374.96189"
     inkscape:current-layer="svg8"
     inkscape:showpageshadow="false"
     inkscape:pagecheckerboard="true" />
  <g
     id="g4141"
     transform="matrix(0.99296878,0,0,0.99296878,0.95249718,0.95249718)">
    <path
       inkscape:export-ydpi="96"
       inkscape:export-xdpi="96"
       id="path2"
       d="M 270.93333,135.46667 A 135.46667,135.46667 0 0 1 135.46667,270.93333 135.46667,135.46667 0 0 1 2.4999999e-6,135.46667 135.46667,135.46667 0 0 1 135.46667,2.4999999e-6 135.46667,135.46667 0 0 1 270.93333,135.46667 Z"
       style="opacity:1;fill:#353535;fill-opacity:1;stroke-width:0.99997538"
       inkscape:connector-curvature="0" />
  </g>
  <g
     aria-label="%"
     style="font-variant-ligatures:normal;font-variant-caps:normal;font-variant-numeric:normal;font-feature-settings:normal;fill:#fed25a;fill-opacity:1"
     transform="scale(0.98657573,1.0135751)"
     id="g6"
     inkscape:export-xdpi="96"
     inkscape:export-ydpi="96">
    <path
       inkscape:connector-curvature="0"
       style="font-variant-ligatures:normal;font-variant-caps:normal;font-variant-numeric:normal;font-feature-settings:normal;fill:#fed25a;fill-opacity:1;stroke-width:4.0854001px"
       d="m 79.634,101.99 q 0,-12.527 6.3035,-21.304 6.3035,-8.7771 18.272,-8.7771 11.011,0 18.192,7.8994 7.261,7.8196 7.261,23.06 0,14.841 -7.3408,22.9 -7.261,7.9792 -17.953,7.9792 -10.612,0 -17.714,-7.8994 -7.0217,-7.8994 -7.0217,-23.858 z M 104.61,81.801 q -5.346,0 -8.9367,4.6279 -3.5108,4.6279 -3.5108,16.996 0,11.251 3.5906,15.879 3.5906,4.5481 8.8569,4.5481 5.4258,0 8.9366,-4.6279 3.5906,-4.6279 3.5906,-16.916 0,-11.33 -3.5906,-15.879 -3.5906,-4.6279 -8.9366,-4.6279 z m 0.0798,113.38 63.993,-123.28 h 11.65 l -63.75,123.29 z m 50.588,-31.757 q 0,-12.607 6.3035,-21.304 6.3035,-8.7771 18.352,-8.7771 11.011,0 18.192,7.8994 7.261,7.8196 7.261,23.06 0,14.841 -7.3408,22.9 -7.261,7.9792 -18.033,7.9792 -10.612,0 -17.714,-7.8994 -7.0217,-7.9792 -7.0217,-23.858 z m 25.055,-20.187 q -5.4258,0 -9.0164,4.6279 -3.5108,4.6279 -3.5108,16.996 0,11.171 3.5906,15.799 3.5906,4.6279 8.8569,4.6279 5.5056,0 9.0164,-4.6279 3.5906,-4.6279 3.5906,-16.916 0,-11.33 -3.5906,-15.879 -3.5906,-4.6279 -8.9367,-4.6279 z"
       id="path4" />
  </g>
</svg>
