<?xml version="1.0" encoding="UTF-8" standalone="no"?>
<svg xmlns:rdf="http://www.w3.org/1999/02/22-rdf-syntax-ns#" xmlns="http://www.w3.org/2000/svg" height="256" width="256" version="1.1" xmlns:cc="http://creativecommons.org/ns#" xmlns:dc="http://purl.org/dc/elements/1.1/" viewBox="0 0 67.733332 67.733335">
 <path d="m27.907 67.32c-13.722-2.3-25.209-13.9-27.446-27.7-2.4204-14.94 4.8396-29.25 18.276-36.04 3.2498-1.6417 6.0763-2.5777 9.426-3.1213 14.924-2.4219 29.229 4.8428 36.013 18.289 2.4533 4.8628 3.5574 9.5648 3.5574 15.151 0 7.2541-2.0906 13.785-6.3414 19.811-4.9717 7.0477-13.288 12.247-21.799 13.628-3.279 0.53212-8.4558 0.5242-11.686-0.0179zm9.98-11.734c0.23245-0.28027 0.28095-0.83149 0.14528-1.6509-0.26917-1.6258-0.56064-2.1311-1.4878-2.5794-0.42475-0.2054-1.037-0.82567-1.3606-1.3784-0.54504-0.93096-0.58737-1.4591-0.5753-7.1779 0.0098-4.7584 0.15798-7.2023 0.64558-10.664 0.78796-5.5947 0.80056-6.8457 0.0782-7.7646-0.58916-0.74949-2.2619-1.382-3.6548-1.382-0.46359 0-1.4816 0.31975-2.2621 0.71054-1.7174 0.85978-6.1536 4.8804-6.1536 5.577 0 0.7525 1.7678 2.9002 2.3872 2.9002 0.29854 0 1.5106-0.90442 2.6935-2.0098 2.2378-2.0913 3.1439-2.5242 2.8543-1.3638-0.08871 0.3553-0.43949 3.1009-0.7796 6.1012-0.83271 7.3457-0.69903 13.144 0.36892 16.003 1.0049 2.6898 1.9228 3.793 3.7367 4.4906 1.8098 0.69604 2.8931 0.75687 3.3641 0.18889zm-0.795-37.117c0.62218-0.6226 0.90596-1.2256 1.0096-2.1454 0.20249-1.7977-0.47502-2.9943-2.1036-3.7151-1.1032-0.48831-1.4309-0.51996-2.3468-0.22659-1.4329 0.45896-2.2042 1.2159-2.6059 2.5576-0.43854 1.4647 0.2313 3.2691 1.513 4.0758 1.3341 0.83963 3.3971 0.59103 4.5337-0.54634z" style="stroke-width:.28702;fill:#fed25a;fill-opacity:.94118"/>
</svg>
